<svg id="Camada_2" data-name="Camada 2" xmlns="http://www.w3.org/2000/svg" viewBox="0 0 3425.07 3131.67"><defs><style>.cls-1,.cls-2,.cls-3{fill:#fff;}.cls-2{stroke:#1d1d1b;}.cls-2,.cls-3{stroke-miterlimit:10;}.cls-3{stroke:#009640;}</style></defs><path class="cls-1" d="M1675.15,2712.51" transform="translate(-242.89 -245.63)"/><path class="cls-1" d="M3125.58,3183.05c7.16.95,34.09,3.68,59.38-13.71a83.27,83.27,0,0,0,27.41-32q-98.2-199.86-196.43-399.72c-1.67-14.76-4.49-36.95-9.14-64-4.82-28-6.18-29.64-8.56-47.39-5.07-37.82-1.11-46.92-5.71-74.24a222.81,222.81,0,0,0-17.71-56.53,201.32,201.32,0,0,0-41.11,57.1c-11.2,23.38-14.76,42.65-18.27,61.67a327.11,327.11,0,0,0-4,91.37,320.94,320.94,0,0,0,17.7,77.66,977,977,0,0,0,52.54,86.8c3,4.49,21,28.75,43.86,59.43,14.33,19.21,27.19,36.23,36.65,62.2,2.39,6.54,4.32,13,7.43,26.27,0,0,34.56,147.6,46.82,155.89a31.84,31.84,0,0,1,3.34,2.57A33.94,33.94,0,0,1,3125.58,3183.05Z" transform="translate(-242.89 -245.63)"/><path class="cls-2" d="M3529.87,3173.91" transform="translate(-242.89 -245.63)"/><path class="cls-1" d="M2556.83,2292.23" transform="translate(-242.89 -245.63)"/><path class="cls-1" d="M1629.84,2986.76a10.21,10.21,0,0,0,5.88-16.19c-73.92-96.17-282.3-380.77-271.22-783.41,10.08-366,180.26-620.57,252.45-716a7.33,7.33,0,0,0-5.1-11.72,5309.7,5309.7,0,0,0-635.65-26.08c-198.68,3.77-416.32,16.22-596.12,35.91-19.25,2.1-21,29.54-2.16,34,53.17,12.61,112.67,33.33,158.58,67.14q7.72,5.68,14.91,11.5c63.26,51.11,99.59,128.24,100.52,209.56.75,64.64,15.92,156.33,82.15,236.91,40.33,49.07,87,78.67,123.82,96.35a308.08,308.08,0,0,0,58.2,20.67,364.46,364.46,0,0,1,165.17,92c16.31,14.56,92.21,85.06,80,166.74-15.67,104.3-158.63,139.49-209,154.23-86.11,25.18-162.65,26.68-252.78,35-209.61,19.4-473.58,33.5-455.66,100.84,6.8,25.55,46.29,59.69,146.57,126.77,177.43,118.68,316.39,159.9,363.53,172.79,6.45,1.77,35.09,11.48,74.5,17.73a2064.23,2064.23,0,0,0,348.86,25.33C1346.39,3034.77,1511.58,3013.18,1629.84,2986.76Z" transform="translate(-242.89 -245.63)"/><path class="cls-1" d="M945.37,2657.69" transform="translate(-242.89 -245.63)"/><path class="cls-1" d="M743.22,1709.77" transform="translate(-242.89 -245.63)"/><path class="cls-1" d="M2353.4,1448.43l27.26,66.34c.76,29.69-1.33,43.11-.57,72.8-6.6-2.53-8.76-6.18-18.33-7.94-9.86-1.82-9.28.76-16.5.81-17.15-32.52-40.56-75-70.14-113.55a760.71,760.71,0,0,0-70-79.18,783.67,783.67,0,0,0-75.38-301.58,473.57,473.57,0,0,0,14.47-124.79c-1.51-79.73-23-119.7-36.55-204.05a763.63,763.63,0,0,1-8.37-160.58,38.29,38.29,0,0,1,8.8-22.53,744.85,744.85,0,0,0,51.35-69.67c13.88-21.33,25.73-41.93,35.85-61.32a43.72,43.72,0,0,0,5-21.42l-1.83-73.29a40.44,40.44,0,0,0-2.64-13.36q-12.37-32.37-24.76-64.76a15.81,15.81,0,0,0-9.07-9.11,231.69,231.69,0,0,0-163-1.59,29.7,29.7,0,0,0-16,13.76l-48.29,89.14a48,48,0,0,0-5.78,23.49l2,146.75a118.17,118.17,0,0,1-1.35,19.44q-13,84.25-25.93,168.5c-21.31,50.36-46.54,130.12-42.64,228.42a514.79,514.79,0,0,0,12.95,95.93l27.3,462a243.19,243.19,0,0,0,17.29,76.59q9.4,23.34,18.6,47.64c18.57,49.12,34.7,96.7,48.73,142.38q5.46,105.6,10.93,211.21a262,262,0,0,0,24.63,98,1329.63,1329.63,0,0,1,121.34,447.88,596.82,596.82,0,0,1-24.29,229.45q-9.81,31.71-20.69,64.13c-43.63,129.81-120.12,291.49-166.74,392.87a998.64,998.64,0,0,0,612.15,157.6V2392.73L2191.36,2009l114.21-141.62h237.55V1670.94l77.66,36.55,45.69-36.55V1561.31l36.54-91.37V1227.82a181.66,181.66,0,0,0-82.23-68.52,122,122,0,0,0-22.49,76.56L2534,1237V1079.4c-15.45-1-68.87-2.44-119.56,34.25-41.87,30.3-58.76,69.89-64.53,85.67-2.86,35.16-4.94,72.24-5.91,111.1l1,96.29A112.57,112.57,0,0,0,2353.4,1448.43ZM2584.24,1430l85.84-17.9v52l-85.84-1Z" transform="translate(-242.89 -245.63)"/><path class="cls-1" d="M3620.06,1848.77c-143.89-474.44-562.94-681.88-621.28-709.6-184.33-87.6-354.46-108.07-461.63-112.23A3,3,0,0,0,2534,1030v46.29a3.06,3.06,0,0,0,3.09,3.06,215.87,215.87,0,0,1,183.74,99.76,3,3,0,0,1,.47,1.64v127.76a3.07,3.07,0,0,0,3.07,3.06h0a16.88,16.88,0,0,1,16.88,16.73l1.22,138.51a16.68,16.68,0,0,1-16.69,16.83h-1.41a3.08,3.08,0,0,0-3.07,3.07V1581a3.05,3.05,0,0,0,3.14,3.06c16.23-.45,72.43,1,115.64,45,29.47,30,40.73,51,43.74,65.44a3,3,0,0,0,2.85,2.43l62.93.3a4.67,4.67,0,0,0,4.69-4.67v-4.86a3.06,3.06,0,0,1,3.06-3.06h106.38a69.32,69.32,0,0,1,20.27,3.07c84.61,25.92,148.37,96.73,164.18,183.47C3263.8,1957,3230.1,2045,3161,2099.45a3.06,3.06,0,0,0-1.16,2.39v271.72a3.08,3.08,0,0,0,.48,1.65A497.72,497.72,0,0,1,3214,2486.69a3,3,0,0,0,2.75,2q19.88.5,40.55,1.47,10.38.49,20.55,1.1a20.59,20.59,0,0,1,19.3,19.41q.61,10.65,1.26,21.37,1.41,23.26,2.93,46.29a3.08,3.08,0,0,0,1.59,2.48,113.51,113.51,0,0,1,32,26.6c1.22,1.47,2.37,2.94,3.45,4.39a62.64,62.64,0,0,1,12.13,41.38c-14.93,242.46,2.14,306,24,310.56C3445.52,2978.67,3793.48,2420.55,3620.06,1848.77Z" transform="translate(-242.89 -245.63)"/><path class="cls-1" d="M2370.67,1908.49l-48.54,7.43-72.52,95.36L2299.1,2071a183.13,183.13,0,0,1,71.57-162.54Z" transform="translate(-242.89 -245.63)"/><path class="cls-1" d="M2424,2168.35" transform="translate(-242.89 -245.63)"/><path class="cls-1" d="M2547.28,2026.11c-6.41.41-119.82,7.48-136.21-26.63a37.2,37.2,0,0,1-3.53-18c1.86-18.56,21.11-30.16,31.76-36.58,36.66-22.09,85.84-20.85,108-18.61Z" transform="translate(-242.89 -245.63)"/><path class="cls-1" d="M2326.13,2098.46l93.65,96.31c-5.73-13.49-2.76-21.54-1.51-24.27,9.07-19.71,51-13.57,57.47-12.65,17.33,2.44,30.31,8.84,40,13.7a164.49,164.49,0,0,1,31.57,20.76v-82.43a274.73,274.73,0,0,1-221.15-11.42Z" transform="translate(-242.89 -245.63)"/><path class="cls-1" d="M2547.28,2331.06v-102.5a339.79,339.79,0,0,1-102.92-4.28C2473.51,2254.12,2518.13,2301.22,2547.28,2331.06Z" transform="translate(-242.89 -245.63)"/><path class="cls-3" d="M2584.24,2194.77" transform="translate(-242.89 -245.63)"/><path class="cls-1" d="M2547.28,1965.6c89.21-5.11,162.53,55,172.86,123.34,12.24,80.92-63.74,174.42-172.86,172.34" transform="translate(-242.89 -245.63)"/><path class="cls-1" d="M3757.11,1711.73" transform="translate(-242.89 -245.63)"/></svg>