<svg id="Camada_1" data-name="Camada 1" xmlns="http://www.w3.org/2000/svg" viewBox="0 0 3786.67 962.51"><defs><style>.cls-1{fill:#fff;}</style></defs><polygon class="cls-1" points="0 352.11 111.83 352.11 111.83 532.5 218.33 532.5 218.33 352.11 314.18 352.11 314.18 825.38 218.33 825.38 218.33 623.03 111.83 623.03 106.5 825.38 0 825.38 0 352.11"/><path class="cls-1" d="M501.06,1847.9H655.49L578.28,2007H698.09L559.64,2289.22l420.69-340.81H778L847.2,1847.9c31.16-.8,75-1.61,127.8-1.55,56.55.06,68.76,1.06,84.31,6.21,41.52,13.75,87,50.51,103,103,20.29,66.89-11.6,146.06-80.77,189.94q42.6,87.86,85.21,175.73H1044.23l-79.88-181.06,5.32,181.06H501.06Z" transform="translate(-107 -1495.79)"/><path class="cls-1" d="M1509.73,1880.07a167.28,167.28,0,0,0-57.68-43c-42.72,0-86-.44-128.7-.44a179.2,179.2,0,0,0-99,103.84V2234.2a148.82,148.82,0,0,0,99.41,92.3h129.58a138.38,138.38,0,0,0,89.64-87V1940.43A167.24,167.24,0,0,0,1509.73,1880.07Zm-79.29,334.6a31.22,31.22,0,0,1-15.09,11.54h-57.69a42.69,42.69,0,0,1-22.19-26.63V1977.7a32.47,32.47,0,0,1,.89-14.2c4.75-16,20.71-22.19,23.08-23.07h53.25a50.5,50.5,0,0,1,15.08,18.63,49.8,49.8,0,0,1,4.44,16q1.79,112.27,3.55,224.54A30.83,30.83,0,0,1,1430.44,2214.67Z" transform="translate(-107 -1495.79)"/><rect class="cls-1" x="1505.02" y="340.79" width="101.18" height="180.39"/><path class="cls-1" d="M1783.1,2276.68l31.07-76.63a13.43,13.43,0,0,1,17-7.57l73,26.63c32.94,18.63,65.79,9.53,72.78-5.33,6.62-14.1-5.77-42.48-36.39-57.68l-111.24-76.53a85.73,85.73,0,0,1-26.37-28.84c-11-19.85-23.7-51.52-21.26-90.78a163.61,163.61,0,0,1,23.08-73.66,138.75,138.75,0,0,1,24-24.85q1.1-.89,2.19-1.74a132.09,132.09,0,0,1,74.2-27.07,322.55,322.55,0,0,1,186.32,47.44l-56.8,84.32-47-19.53c-49.74-19.36-90.6-9.14-97.63,8.88-5.93,15.21,10.43,40.6,37.28,60.35,36.38,26,80.76,48.52,117.15,74.55,5.19,4.59,57.46,52.32,48.81,121.59-5,40.11-27.82,66.52-37.27,76.33a153.7,153.7,0,0,1-58.58,45.27c-48,21-92.11,10.1-105.62,6.21a222.61,222.61,0,0,1-104.21-44.52A14.47,14.47,0,0,1,1783.1,2276.68Z" transform="translate(-107 -1495.79)"/><path class="cls-1" d="M2659.52,1811.74l-145.46,1.08-104.82,508.35h106.5l16-65.67h117.15l14.2,65.67h113.61Zm-112.27,331.93L2583,1996.34l35.73,147.33Z" transform="translate(-107 -1495.79)"/><path class="cls-1" d="M3455.11,1811.74l-145.47,1.08-104.81,508.35h106.5l16-65.67h117.16l14.2,65.67h113.6Zm-112.27,331.93,35.72-147.33,35.72,147.33Z" transform="translate(-107 -1495.79)"/><path class="cls-1" d="M3140.56,2335.38V2228.87H3050c-5.35-1-25.07-5.57-39.06-24a63.73,63.73,0,0,1-12.42-31.06V1967.94c.27-3.15,2.52-25.34,22.19-39,15.64-10.9,32.17-9.39,36.39-8.88h83.42V1816.62H2991.9a163,163,0,0,0-65.23,33.28c-46.47,39.29-55.3,92.85-57.25,107.83V2196a180.58,180.58,0,0,0,36.84,79c34.12,42,77.47,56,93.63,60.36q-.66,27.51-1.33,55h28c13.36-2.23,24.54,7.2,25.29,16.87.78,10.1-9.75,21.59-24,20.41h-30.62v30.62h78.54a56.81,56.81,0,0,0,31.07-64.35,71.46,71.46,0,0,0-26.63-27.51,70.72,70.72,0,0,0-29.73-9.32q.57-10.22,1.13-20.42Z" transform="translate(-107 -1495.79)"/><polygon class="cls-1" points="3525.25 321.42 3647.73 321.27 3647.73 825.38 3525.25 825.38 3525.25 321.42"/><path class="cls-1" d="M3751.83,1688.51c4.91,35.86-18.41,66.7-46.15,71-34.34,5.32-69.78-30.91-63.9-66.57,4.15-25.18,28.25-46.15,58.57-47.92,39.73-30.65,81.11-58.29,120.61-89,2.59-2,.87-8.57-1.66-10.65h0c-3-2.44-4.84-3.27-7.66-.67-11.07,10.22-25,18.23-37.27,28.62-21.28,18-48.7,33.12-68.81,47.72l-.51-33.8a33.53,33.53,0,0,1,14.78-28.26l2.71-1.82a464.3,464.3,0,0,1,65.6-36.35,280.51,280.51,0,0,1,91.32-23.78l14.21-1.24q-.23,7.17-.44,14.35a202.45,202.45,0,0,1-21.38,84.74c-6.25,12.44-13.37,25.38-21.51,38.61-9.56,15.55-19.34,29.59-28.91,42.15a50.26,50.26,0,0,1-39.88,20h-.43A66,66,0,0,1,3751.83,1688.51Z" transform="translate(-107 -1495.79)"/></svg>